<svg xmlns="http://www.w3.org/2000/svg" 
xmlns:xlink="http://www.w3.org/1999/xlink" 
width="500" 
zoomAndPan="magnify" 
viewBox="0 0 375 374.999991" 
height="500" 
preserveAspectRatio="xMidYMid meet" version="1.0">
<defs>
<clipPath id="4b9a509c55">
<path d="M 11.984375 11.984375 L 362.984375 11.984375 L 362.984375 362.984375 L 11.984375 362.984375 Z M 11.984375 11.984375 " 
clip-rule="nonzero"/>
</clipPath>
</defs>
<g clip-path="url(#4b9a509c55)">
<path fill="#1b9df0" 
d="M 362.984375 187.484375 C 362.984375 190.359375 362.914062 193.226562 362.773438 196.097656 C 362.632812 198.964844 362.421875 201.828125 362.140625 204.6875 C 361.859375 207.546875 361.507812 210.394531 361.085938 213.238281 C 360.664062 216.078125 360.171875 218.90625 359.613281 221.722656 C 359.054688 224.539062 358.421875 227.34375 357.726562 230.128906 C 357.027344 232.914062 356.261719 235.683594 355.429688 238.429688 C 354.59375 241.179688 353.695312 243.90625 352.726562 246.609375 C 351.757812 249.3125 350.726562 251.992188 349.625 254.644531 C 348.527344 257.300781 347.363281 259.925781 346.136719 262.519531 C 344.90625 265.117188 343.617188 267.683594 342.261719 270.214844 C 340.910156 272.75 339.492188 275.246094 338.015625 277.710938 C 336.539062 280.175781 335.003906 282.601562 333.410156 284.988281 C 331.8125 287.375 330.160156 289.722656 328.449219 292.03125 C 326.738281 294.335938 324.972656 296.601562 323.148438 298.820312 C 321.328125 301.042969 319.453125 303.214844 317.523438 305.34375 C 315.59375 307.472656 313.613281 309.550781 311.582031 311.582031 C 309.550781 313.613281 307.472656 315.59375 305.34375 317.523438 C 303.214844 319.453125 301.042969 321.328125 298.820312 323.148438 C 296.601562 324.972656 294.335938 326.738281 292.03125 328.449219 C 289.722656 330.160156 287.375 331.8125 284.988281 333.410156 C 282.601562 335.003906 280.175781 336.539062 277.710938 338.015625 C 275.246094 339.492188 272.75 340.910156 270.214844 342.261719 C 267.683594 343.617188 265.117188 344.90625 262.519531 346.136719 C 259.925781 347.363281 257.300781 348.527344 254.644531 349.625 C 251.992188 350.726562 249.3125 351.757812 246.609375 352.726562 C 243.90625 353.695312 241.179688 354.59375 238.429688 355.429688 C 235.683594 356.261719 232.914062 357.027344 230.128906 357.726562 C 227.34375 358.421875 224.539062 359.054688 221.722656 359.613281 C 218.90625 360.171875 216.078125 360.664062 213.238281 361.085938 C 210.394531 361.507812 207.546875 361.859375 204.6875 362.140625 C 201.828125 362.421875 198.964844 362.632812 196.097656 362.773438 C 193.226562 362.914062 190.359375 362.984375 187.484375 362.984375 C 184.613281 362.984375 181.742188 362.914062 178.875 362.773438 C 176.003906 362.632812 173.140625 362.421875 170.285156 362.140625 C 167.425781 361.859375 164.574219 361.507812 161.734375 361.085938 C 158.894531 360.664062 156.0625 360.171875 153.246094 359.613281 C 150.429688 359.054688 147.628906 358.421875 144.84375 357.726562 C 142.054688 357.027344 139.289062 356.261719 136.539062 355.429688 C 133.792969 354.59375 131.066406 353.695312 128.359375 352.726562 C 125.65625 351.757812 122.976562 350.726562 120.324219 349.625 C 117.671875 348.527344 115.046875 347.363281 112.449219 346.136719 C 109.851562 344.90625 107.289062 343.617188 104.753906 342.261719 C 102.222656 340.910156 99.722656 339.492188 97.261719 338.015625 C 94.796875 336.539062 92.371094 335.003906 89.984375 333.410156 C 87.59375 331.8125 85.246094 330.160156 82.941406 328.449219 C 80.632812 326.738281 78.371094 324.972656 76.148438 323.148438 C 73.929688 321.328125 71.753906 319.453125 69.625 317.523438 C 67.5 315.59375 65.417969 313.613281 63.386719 311.582031 C 61.355469 309.550781 59.378906 307.472656 57.449219 305.34375 C 55.519531 303.214844 53.644531 301.042969 51.820312 298.820312 C 50 296.601562 48.234375 294.335938 46.523438 292.03125 C 44.8125 289.722656 43.160156 287.375 41.5625 284.988281 C 39.96875 282.601562 38.429688 280.175781 36.953125 277.710938 C 35.476562 275.246094 34.0625 272.75 32.707031 270.214844 C 31.355469 267.683594 30.0625 265.117188 28.835938 262.519531 C 27.605469 259.925781 26.445312 257.300781 25.34375 254.644531 C 24.246094 251.992188 23.210938 249.3125 22.246094 246.609375 C 21.277344 243.90625 20.375 241.179688 19.542969 238.429688 C 18.707031 235.683594 17.941406 232.914062 17.246094 230.128906 C 16.546875 227.34375 15.917969 224.539062 15.359375 221.722656 C 14.796875 218.90625 14.304688 216.078125 13.886719 213.238281 C 13.464844 210.394531 13.113281 207.546875 12.832031 204.6875 C 12.550781 201.828125 12.335938 198.964844 12.195312 196.097656 C 12.054688 193.226562 11.984375 190.359375 11.984375 187.484375 C 11.984375 184.613281 12.054688 181.742188 12.195312 178.875 C 12.335938 176.003906 12.550781 173.140625 12.832031 170.285156 C 13.113281 167.425781 13.464844 164.574219 13.886719 161.734375 C 14.304688 158.894531 14.796875 156.0625 15.359375 153.246094 C 15.917969 150.429688 16.546875 147.628906 17.246094 144.84375 C 17.941406 142.054688 18.707031 139.289062 19.542969 136.539062 C 20.375 133.792969 21.277344 131.066406 22.246094 128.359375 C 23.210938 125.65625 24.246094 122.976562 25.34375 120.324219 C 26.445312 117.671875 27.605469 115.046875 28.835938 112.449219 C 30.0625 109.851562 31.355469 107.289062 32.707031 104.753906 C 34.0625 102.222656 35.476562 99.722656 36.953125 97.261719 C 38.429688 94.796875 39.96875 92.371094 41.5625 89.984375 C 43.160156 87.59375 44.8125 85.246094 46.523438 82.941406 C 48.234375 80.632812 50 78.371094 51.820312 76.148438 C 53.644531 73.929688 55.519531 71.753906 57.449219 69.625 C 59.378906 67.5 61.355469 65.417969 63.386719 63.386719 C 65.417969 61.355469 67.5 59.378906 69.625 57.449219 C 71.753906 55.519531 73.929688 53.644531 76.148438 51.820312 C 78.371094 50 80.632812 48.234375 82.941406 46.523438 C 85.246094 44.8125 87.59375 43.160156 89.984375 41.5625 C 92.371094 39.96875 94.796875 38.429688 97.261719 36.953125 C 99.722656 35.476562 102.222656 34.0625 104.753906 32.707031 C 107.289062 31.355469 109.851562 30.0625 112.449219 28.835938 C 115.046875 27.605469 117.671875 26.445312 120.324219 25.34375 C 122.976562 24.246094 125.65625 23.210938 128.359375 22.246094 C 131.066406 21.277344 133.792969 20.375 136.539062 19.542969 C 139.289062 18.707031 142.054688 17.941406 144.84375 17.246094 C 147.628906 16.546875 150.429688 15.917969 153.246094 15.359375 C 156.0625 14.796875 158.894531 14.304688 161.734375 13.886719 C 164.574219 13.464844 167.425781 13.113281 170.285156 12.832031 C 173.140625 12.550781 176.003906 12.335938 178.875 12.195312 C 181.742188 12.054688 184.613281 11.984375 187.484375 11.984375 C 190.359375 11.984375 193.226562 12.054688 196.097656 12.195312 C 198.964844 12.335938 201.828125 12.550781 204.6875 12.832031 C 207.546875 13.113281 210.394531 13.464844 213.238281 13.886719 C 216.078125 14.304688 218.90625 14.796875 221.722656 15.359375 C 224.539062 15.917969 227.34375 16.546875 230.128906 17.246094 C 232.914062 17.941406 235.683594 18.707031 238.429688 19.542969 C 241.179688 20.375 243.90625 21.277344 246.609375 22.246094 C 249.3125 23.210938 251.992188 24.246094 254.644531 25.34375 C 257.300781 26.445312 259.925781 27.605469 262.519531 28.835938 C 265.117188 30.0625 267.683594 31.355469 270.214844 32.707031 C 272.75 34.0625 275.246094 35.476562 277.710938 36.953125 C 280.175781 38.429688 282.601562 39.96875 284.988281 41.5625 C 287.375 43.160156 289.722656 44.8125 292.03125 46.523438 C 294.335938 48.234375 296.601562 50 298.820312 51.820312 C 301.042969 53.644531 303.214844 55.519531 305.34375 57.449219 C 307.472656 59.378906 309.550781 61.355469 311.582031 63.386719 C 313.613281 65.417969 315.59375 67.5 317.523438 69.625 C 319.453125 71.753906 321.328125 73.929688 323.148438 76.148438 C 324.972656 78.371094 326.738281 80.632812 328.449219 82.941406 C 330.160156 85.246094 331.8125 87.59375 333.410156 89.984375 C 335.003906 92.371094 336.539062 94.796875 338.015625 97.261719 C 339.492188 99.722656 340.910156 102.222656 342.261719 104.753906 C 343.617188 107.289062 344.90625 109.851562 346.136719 112.449219 C 347.363281 115.046875 348.527344 117.671875 349.625 120.324219 C 350.726562 122.976562 351.757812 125.65625 352.726562 128.359375 C 353.695312 131.066406 354.59375 133.792969 355.429688 136.539062 C 356.261719 139.289062 357.027344 142.054688 357.726562 144.84375 C 358.421875 147.628906 359.054688 150.429688 359.613281 153.246094 C 360.171875 156.0625 360.664062 158.894531 361.085938 161.734375 C 361.507812 164.574219 361.859375 167.425781 362.140625 170.285156 C 362.421875 173.140625 362.632812 176.003906 362.773438 178.875 C 362.914062 181.742188 362.984375 184.613281 362.984375 187.484375 Z M 362.984375 187.484375 " fill-opacity="1" fill-rule="nonzero"/>
</g
><path fill="#ffffff" d="M 155.367188 280.0625 C 233.203125 280.0625 275.761719 215.566406 275.761719 159.667969 C 275.761719 157.824219 275.761719 155.984375 275.675781 154.226562 C 283.921875 148.261719 291.117188 140.800781 296.820312 132.289062 C 289.277344 135.625 281.113281 137.90625 272.515625 138.960938 C 281.289062 133.695312 287.960938 125.445312 291.117188 115.53125 C 282.957031 120.355469 273.917969 123.867188 264.265625 125.796875 C 256.542969 117.546875 245.574219 112.460938 233.378906 112.460938 C 210.039062 112.460938 191.082031 131.414062 191.082031 154.753906 C 191.082031 158.089844 191.433594 161.335938 192.222656 164.40625 C 157.035156 162.652344 125.886719 145.804688 105 120.179688 C 101.402344 126.410156 99.296875 133.695312 99.296875 141.417969 C 99.296875 156.070312 106.753906 169.058594 118.164062 176.605469 C 111.230469 176.429688 104.738281 174.5 99.035156 171.339844 C 99.035156 171.515625 99.035156 171.691406 99.035156 171.867188 C 99.035156 192.398438 113.601562 209.421875 132.992188 213.371094 C 129.484375 214.335938 125.710938 214.863281 121.847656 214.863281 C 119.128906 214.863281 116.496094 214.601562 113.863281 214.074219 C 119.214844 230.921875 134.835938 243.117188 153.351562 243.46875 C 138.871094 254.789062 120.621094 261.546875 100.789062 261.546875 C 97.367188 261.546875 94.03125 261.371094 90.695312 260.933594 C 109.210938 273.042969 131.5 280.0625 155.367188 280.0625 " fill-opacity="1" fill-rule="nonzero"/>
</svg>